<svg width="24" height="24" viewBox="0 0 24 24" fill="none" xmlns="http://www.w3.org/2000/svg">
<path d="M12.0004 17C13.2504 17 14.3129 16.5625 15.1879 15.6875C16.0629 14.8125 16.5004 13.75 16.5004 12.5C16.5004 11.25 16.0629 10.1875 15.1879 9.3125C14.3129 8.4375 13.2504 8 12.0004 8C10.7504 8 9.68789 8.4375 8.81289 9.3125C7.93789 10.1875 7.50039 11.25 7.50039 12.5C7.50039 13.75 7.93789 14.8125 8.81289 15.6875C9.68789 16.5625 10.7504 17 12.0004 17ZM12.0004 15.2C11.2504 15.2 10.6129 14.9375 10.0879 14.4125C9.56289 13.8875 9.30039 13.25 9.30039 12.5C9.30039 11.75 9.56289 11.1125 10.0879 10.5875C10.6129 10.0625 11.2504 9.8 12.0004 9.8C12.7504 9.8 13.3879 10.0625 13.9129 10.5875C14.4379 11.1125 14.7004 11.75 14.7004 12.5C14.7004 13.25 14.4379 13.8875 13.9129 14.4125C13.3879 14.9375 12.7504 15.2 12.0004 15.2ZM12.0004 20C9.76706 20 7.72956 19.4 5.88789 18.2C4.04622 17 2.59206 15.4167 1.52539 13.45C1.44206 13.3 1.37956 13.1458 1.33789 12.9875C1.29622 12.8292 1.27539 12.6667 1.27539 12.5C1.27539 12.3333 1.29622 12.1708 1.33789 12.0125C1.37956 11.8542 1.44206 11.7 1.52539 11.55C2.59206 9.58333 4.04622 8 5.88789 6.8C7.72956 5.6 9.76706 5 12.0004 5C14.2337 5 16.2712 5.6 18.1129 6.8C19.9546 8 21.4087 9.58333 22.4754 11.55C22.5587 11.7 22.6212 11.8542 22.6629 12.0125C22.7046 12.1708 22.7254 12.3333 22.7254 12.5C22.7254 12.6667 22.7046 12.8292 22.6629 12.9875C22.6212 13.1458 22.5587 13.3 22.4754 13.45C21.4087 15.4167 19.9546 17 18.1129 18.2C16.2712 19.4 14.2337 20 12.0004 20ZM12.0004 18C13.8837 18 15.6129 17.5042 17.1879 16.5125C18.7629 15.5208 19.9671 14.1833 20.8004 12.5C19.9671 10.8167 18.7629 9.47917 17.1879 8.4875C15.6129 7.49583 13.8837 7 12.0004 7C10.1171 7 8.38789 7.49583 6.81289 8.4875C5.23789 9.47917 4.03372 10.8167 3.20039 12.5C4.03372 14.1833 5.23789 15.5208 6.81289 16.5125C8.38789 17.5042 10.1171 18 12.0004 18Z" fill="white"/>
</svg>
