<svg width="65" height="53" viewBox="0 0 65 53" fill="none" xmlns="http://www.w3.org/2000/svg">
<path d="M39.197 49.483C39.0009 49.9958 38.8001 50.562 38.9205 51.0938C39.0675 51.742 39.6281 52.0889 40.1361 52.3646C40.3044 52.4559 40.4969 52.5484 40.6729 52.4632C40.7767 52.413 40.8556 52.3083 40.9303 52.2072C42.8648 49.585 44.676 46.833 46.3516 43.97C46.2133 44.2064 42.376 41.7009 41.4538 43.1204C41.0715 43.7088 40.8684 45.1143 40.5991 45.8181C40.1319 47.0398 39.6645 48.2614 39.197 49.483Z" fill="#3B69D1"/>
<path d="M13.7364 27.0691C14.0598 27.0271 14.2468 26.8192 14.2308 26.5616C14.2131 26.2761 14.0092 26.1096 13.6643 26.1002C13.6159 26.0988 13.5669 26.099 13.5189 26.1042C10.9631 26.3873 8.40199 26.6057 5.83571 26.7715C4.20933 26.8767 2.58565 27.0236 0.959602 27.1372C0.619903 27.1609 0.28374 27.148 0.0245838 27.4184C0.0163279 27.4957 0.0082407 27.5731 -1.62125e-05 27.6504C0.165621 27.9568 0.41939 28.059 0.765492 28.0383C2.16962 27.9541 3.57542 27.8949 4.97955 27.8105C7.39098 27.6658 9.8009 27.4998 12.2031 27.2368C12.7143 27.1808 13.2267 27.1351 13.7364 27.0691Z" fill="#3B69D1"/>
<path d="M57.3737 37.5196C57.3592 37.2879 57.4652 37.0589 57.386 36.8264C56.771 36.2914 56.1689 35.7404 55.5389 35.2237C52.3485 32.6074 49.382 29.7671 46.7448 26.5854C44.9934 24.4724 43.3498 22.2905 42.064 19.8561C40.9702 17.7856 39.9142 15.7007 39.3156 13.4175C39.0797 12.5175 38.8643 11.6062 38.4137 10.7794C38.2372 10.4554 38.0344 10.1457 37.6383 10.0481C37.5443 10.1077 37.566 10.1939 37.5808 10.2818C37.8083 11.6216 37.8206 12.9701 37.7825 14.325C37.7544 15.3271 37.6366 16.3188 37.4988 17.3063C37.3298 18.517 36.911 19.6644 36.4842 20.8063C36.2 21.5668 35.9384 22.3355 35.6699 23.1017C35.6271 23.2236 35.5799 23.3268 35.4334 23.3136C35.4328 23.3194 35.4321 23.3251 35.4313 23.3307C35.533 23.4228 35.5061 23.5229 35.4505 23.6441C35.0904 24.4279 34.6639 25.1768 34.2588 25.9372C33.1848 27.9533 31.7446 29.7068 30.3086 31.4619C29.8746 31.9925 29.4346 32.523 28.9352 32.9973C28.5378 33.5133 28.062 33.9559 27.6028 34.4134C26.702 35.311 25.7689 36.1748 24.7489 36.9362C23.3042 38.0148 21.8257 39.0449 20.2307 39.8941C19.9936 40.0202 19.7356 40.1066 19.4873 40.2114C19.689 40.4492 19.9835 40.4874 20.2541 40.5009C22.1061 40.5941 23.9482 40.7895 25.7882 41.0093C26.0673 41.0426 26.3438 41.1018 26.6233 41.1227C28.6437 41.2738 30.6711 41.3271 32.6864 41.5539C34.103 41.7133 35.5147 41.905 36.9146 42.1772C37.2762 42.2494 37.9308 42.3534 38.5335 42.4511C38.544 42.4518 38.5531 42.4503 38.5639 42.4513C39.0136 42.4993 39.463 42.5664 39.8846 42.728C39.9382 42.7218 39.9982 42.7307 40.0607 42.7435C41.1239 42.9619 41.3303 43.1366 42.3653 43.4647C43.5846 43.8511 44.7834 44.2944 45.9852 44.7306C46.0211 44.7436 46.0528 44.7681 46.0866 44.7871C46.7295 44.9959 47.3583 45.2409 47.9745 45.5187C48.0023 45.5268 48.0312 45.5329 48.0579 45.5435C49.1185 45.9666 50.1202 46.5122 51.1373 47.0261C51.4354 47.0614 51.6642 46.9441 51.9016 46.7611C52.4531 46.336 52.9971 45.9053 53.4916 45.4136C54.4526 44.4582 55.2821 43.4071 55.9401 42.2157C56.4399 41.3111 56.8229 40.361 57.1329 39.382C57.3228 38.7818 57.4133 38.1557 57.3737 37.5196Z" fill="#274996"/>
<path d="M20.2309 39.8941C21.8259 39.0451 23.3043 38.015 24.7489 36.9362C25.7689 36.1748 26.702 35.3109 27.6028 34.4134C28.062 33.9559 28.5378 33.5133 28.9352 32.9973C28.3714 31.9998 27.7378 31.0478 27.019 30.1567C26.5505 29.5761 26.041 29.0286 25.5525 28.4639C25.4704 28.3691 25.4012 28.2633 25.326 28.1625C24.8463 27.812 24.7125 27.2607 25.0015 26.7585C25.8354 25.3099 26.7526 23.9188 27.906 22.6996C28.3918 22.1862 28.8802 21.6714 29.4334 21.2293C29.7784 20.9538 30.1747 20.804 30.6215 20.9907C30.7764 21.0554 30.8743 21.1976 30.9961 21.3068C32.3748 22.1796 33.8585 22.8213 35.4107 23.3118C35.419 23.3132 35.4257 23.3127 35.4334 23.3135C35.5799 23.3265 35.6271 23.2235 35.6699 23.1015C35.9383 22.3353 36.2001 21.5665 36.4842 20.8062C36.911 19.6644 37.3299 18.5171 37.4988 17.3062C37.6366 16.3186 37.7542 15.327 37.7824 14.3249C37.8204 12.97 37.8081 11.6214 37.5807 10.2817C37.5657 10.1937 37.5439 10.1076 37.638 10.048C37.5559 9.95006 37.4572 10.0432 37.3646 10.0242C36.497 9.84475 35.7184 10.1474 34.9527 10.4918C33.1476 11.3038 31.5074 12.3875 29.9519 13.5988C28.9035 14.4152 27.907 15.298 26.9915 16.2615C24.7808 18.588 22.8159 21.1128 21.1255 23.839C20.2634 25.2294 19.5466 26.7019 19.0113 28.2612C18.5246 29.6787 18.2549 31.1387 18.0164 32.6083C17.9563 32.9786 18.006 33.3633 17.944 33.7381C17.8353 34.3947 17.935 35.0517 17.9492 35.7079C17.9677 36.5713 18.117 37.4202 18.317 38.2593C18.4296 38.7318 18.5873 39.1812 18.8423 39.6067C19.0089 39.8847 19.2879 39.9952 19.4869 40.2114C19.7357 40.1066 19.9938 40.0203 20.2309 39.8941Z" fill="#DBEDF9"/>
<path d="M64.8091 42.4675C64.7269 42.0456 64.665 41.5785 64.2901 41.2959C63.4459 40.6595 62.608 40.0128 61.7117 39.4485C60.6277 38.7658 59.5501 38.0725 58.4557 37.407C58.1106 37.1973 57.7691 36.9705 57.3861 36.826C57.4653 37.0586 57.3593 37.2876 57.3738 37.5193C57.4134 38.1554 57.3229 38.7815 57.1327 39.3821C56.8224 40.3611 56.4396 41.3111 55.9398 42.2158C55.2818 43.4071 54.4525 44.4582 53.4913 45.4136C52.9968 45.9053 52.4528 46.336 51.9013 46.7611C51.6641 46.9441 51.4351 47.0614 51.137 47.0262C51.2595 47.2201 51.4413 47.3458 51.6343 47.4591C52.0356 47.695 52.4446 47.9189 52.836 48.17C54.5033 49.2395 56.2716 50.1403 57.9324 51.2182C58.6846 51.7063 59.3683 51.7911 60.1638 51.2849C60.7012 50.943 61.283 50.662 61.7774 50.2559C62.7429 49.4627 63.3672 48.4108 63.9204 47.3138C64.3154 46.5303 64.5619 45.7019 64.7078 44.8324C64.8403 44.0433 64.9634 43.2591 64.8091 42.4675Z" fill="#DBEDF9"/>
<path d="M17.2325 1.81609C18.5284 4.28263 19.8598 6.72911 21.3225 9.10196C21.6129 9.57293 21.8867 10.0542 22.1861 10.5191C22.3494 10.7727 22.6529 10.8337 22.8719 10.6947C23.0817 10.5615 23.1427 10.2881 23.0136 10.022C22.9501 9.89123 22.8746 9.76621 22.7998 9.64135C22.161 8.57557 21.507 7.51871 20.8846 6.44367C19.7079 4.41119 18.6211 2.32715 17.3744 0.33478C17.2739 0.174365 17.1744 0.0215345 16.9627 0.00299925C16.6146 -0.0362618 16.3783 0.316753 16.5551 0.662015C16.758 1.0585 17.0252 1.42162 17.2325 1.81609Z" fill="#3B69D1"/>
<path d="M17.4992 16.7069C17.1617 16.4788 16.8225 16.2511 16.4703 16.0469C14.5135 14.9117 12.4531 13.977 10.4405 12.9498C10.3896 12.9239 10.3308 12.9136 10.3119 12.9077C10.0759 12.8716 9.92439 12.9574 9.83525 13.1217C9.73803 13.301 9.76482 13.4907 9.91933 13.6275C10.0412 13.7354 10.1857 13.8216 10.33 13.8992C12.551 15.0918 14.8448 16.151 16.9652 17.5282C17.2685 17.7252 17.558 17.6805 17.7171 17.448C17.8886 17.1978 17.8138 16.9196 17.4992 16.7069Z" fill="#3B69D1"/>
<path d="M14.5954 34.2217C14.4934 34.2478 14.3952 34.2952 14.3007 34.3435C13.195 34.9104 12.1012 35.4986 11.059 36.1778C10.905 36.2783 10.7335 36.3539 10.6049 36.4909C10.4812 36.6227 10.4403 36.775 10.5059 36.947C10.5674 37.1085 10.6958 37.1858 10.8599 37.2133C10.9788 37.2264 11.1017 37.1936 11.3199 37.0577C12.4504 36.3539 13.63 35.7414 14.8273 35.1612C14.8965 35.1277 14.9683 35.0903 15.0229 35.0379C15.1939 34.874 15.2563 34.6771 15.1354 34.4593C15.019 34.249 14.8325 34.161 14.5954 34.2217Z" fill="#3B69D1"/>
<path d="M30.6395 9.5691C30.6693 9.82658 30.8174 9.97823 31.0789 9.9816C31.3184 9.98463 31.4692 9.80164 31.5056 9.37803C31.4516 8.79737 31.3955 8.08342 31.3145 7.37217C31.2793 7.06331 31.0611 6.90137 30.8021 6.9344C30.5523 6.96625 30.3783 7.18935 30.4078 7.49097C30.4757 8.18453 30.5591 8.87673 30.6395 9.5691Z" fill="#3B69D1"/>
<path d="M35.411 23.312C33.8588 22.8215 32.3751 22.1799 30.9964 21.307C30.9767 21.3276 30.9378 21.3501 30.9398 21.3683C31.0296 22.1783 30.5546 22.7666 30.1261 23.3543C29.2951 24.4947 28.321 25.5174 27.3974 26.5818C26.9925 27.0486 26.6196 27.5404 26.1291 27.928C25.8861 28.1199 25.6361 28.2279 25.3264 28.1624C25.4015 28.2631 25.4708 28.3689 25.5528 28.4638C26.0415 29.0285 26.5509 29.5759 27.0193 30.1566C27.7381 31.0476 28.3717 31.9998 28.9355 32.9972C29.4349 32.5227 29.8751 31.9923 30.3091 31.4618C31.7451 29.7067 33.1853 27.9532 34.2593 25.9371C34.6644 25.1767 35.0909 24.4278 35.451 23.644C35.5066 23.523 35.5337 23.4229 35.4319 23.3305C35.4248 23.3245 35.4191 23.3183 35.411 23.312Z" fill="#3B69D1"/>
<path d="M26.129 27.9283C26.6195 27.5409 26.9924 27.0488 27.3973 26.5821C28.3209 25.5177 29.295 24.4949 30.126 23.3546C30.5544 22.7667 31.0295 22.1785 30.9397 21.3686C30.9377 21.3504 30.9765 21.3278 30.9963 21.3073C30.8744 21.1981 30.7765 21.0559 30.6218 20.9912C30.1749 20.8043 29.7786 20.9543 29.4337 21.2298C28.8805 21.6718 28.392 22.1865 27.9062 22.7001C26.7528 23.9192 25.8358 25.3104 25.0017 26.759C24.7126 27.2612 24.8464 27.8123 25.3263 28.163C25.636 28.228 25.8859 28.1202 26.129 27.9283Z" fill="#274996"/>
</svg>
